<svg width="80" height="80" viewBox="0 0 80 80" fill="none" xmlns="http://www.w3.org/2000/svg">
<g clip-path="url(#clip0)">
<path d="M0 16C0 7.16344 7.16344 0 16 0H64C72.8366 0 80 7.16344 80 16V64C80 72.8366 72.8366 80 64 80H16C7.16344 80 0 72.8366 0 64V16Z" fill="#14348E"/>
<g clip-path="url(#clip1)">
<path d="M44.2907 28.716C43.092 29.3469 42.6504 30.3942 42.6504 33.309C43.092 32.9178 43.5967 32.6023 44.1519 32.4005C44.6945 32.1986 45.2118 31.921 45.6913 31.5677C46.7007 30.8232 46.8521 29.8769 46.8521 28.2744C46.8395 28.287 45.1992 28.2366 44.2907 28.716Z" fill="white"/>
<path d="M37.2119 29.3973C36.5937 30.0029 36.152 30.7726 35.9502 31.618L32.7326 44.0971L30.0576 33.8892C29.7926 32.8041 29.3258 31.4666 28.5813 30.5581C27.635 29.3973 25.7044 29.3342 25.5025 29.3342C25.3007 29.3342 23.3701 29.4099 22.4238 30.5581C21.6793 31.4666 21.1998 32.8041 20.9475 33.8892L18.2725 44.0971L15.0423 31.6306C14.8404 30.7852 14.4114 30.0155 13.7931 29.4099C12.2033 28.0093 9.84375 28.3121 9.84375 28.3121L16.0139 51.63C16.0139 51.63 18.0454 51.7814 19.0674 51.2514C20.4049 50.5701 21.0358 50.0401 21.856 46.873C22.5752 44.0466 24.5941 35.7314 24.7833 35.1384C24.8717 34.8482 24.9978 34.1416 25.5025 34.1416C26.0199 34.1416 26.1334 34.8356 26.2218 35.1384C26.411 35.7314 28.4299 44.034 29.1491 46.873C29.9567 50.0401 30.6002 50.5701 31.9377 51.2514C32.9597 51.7688 34.9912 51.63 34.9912 51.63L41.1613 28.3121C41.1613 28.3121 38.7892 28.0093 37.2119 29.3973Z" fill="white"/>
<path d="M46.7507 32.1484C46.4101 32.6027 45.981 32.9686 45.489 33.2336C44.9211 33.549 44.3912 33.7635 43.8108 34.0411C42.8392 34.508 42.5742 35.0253 42.5742 35.8202V51.5926C42.5742 51.5926 44.1262 51.7945 45.1357 51.2772C46.4353 50.6084 46.7381 49.9649 46.7507 47.0754V32.9938V32.1484Z" fill="white"/>
<path d="M62.221 40.0217L70.0441 28.388C70.0441 28.388 66.7382 27.8202 65.1105 29.3091C64.2904 30.1293 63.5459 31.0252 62.8898 31.9715L60.0129 36.1228C59.8993 36.3752 59.6722 36.5392 59.3946 36.5771C59.1296 36.5392 58.8899 36.3752 58.7763 36.1228L55.8995 31.9715C55.2433 31.0126 54.4989 30.1293 53.6787 29.3091C52.0384 27.8202 48.7451 28.388 48.7451 28.388L56.5682 40.0217L48.7577 51.6302C48.7577 51.6302 52.2024 52.0592 53.8301 50.5703C54.5998 49.8132 55.2938 48.9678 55.8868 48.0719L58.7637 43.9207C58.8773 43.6683 59.1044 43.5043 59.382 43.4664C59.647 43.5043 59.8867 43.6683 60.0003 43.9207L62.8772 48.0719C63.508 48.9678 64.2147 49.8132 64.997 50.5703C66.6373 52.0592 70.0063 51.6302 70.0063 51.6302L62.221 40.0217Z" fill="white"/>
</g>
</g>
<defs>
<clipPath id="clip0">
<path d="M0 16C0 7.16344 7.16344 0 16 0H64C72.8366 0 80 7.16344 80 16V64C80 72.8366 72.8366 80 64 80H16C7.16344 80 0 72.8366 0 64V16Z" fill="white"/>
</clipPath>
<clipPath id="clip1">
<rect width="60.1999" height="23.4062" fill="white" transform="translate(9.84375 28.2812)"/>
</clipPath>
</defs>
</svg>
